# xmcd
#
# Track frame offsets: 
#        150
#        14848
#        31005
#        44598
#        73428
#        87923
#        105178
#        119978
#        145250
#        160870
#        175205
#
# Disc length: 2466 seconds
#
# Revision: 5
# Processed by: cddbd v1.5.1PL2 Copyright (c) Steve Scherf et al.
# Submitted via: ExactAudioCopy v0.95a4
#
DISCID=9c09a00b
DTITLE=Mazzy Star - She Hangs Brightly
DYEAR=1990
DGENRE=Dream
TTITLE0=Halah
TTITLE1=Blue Flower
TTITLE2=Ride It On
TTITLE3=She Hangs Brightly
TTITLE4=I'm Sailin
TTITLE5=Give You My Lovin
TTITLE6=Be My Angel
TTITLE7=Taste Of Blood
TTITLE8=Ghost Highway
TTITLE9=Free
TTITLE10=Before I Sleep
EXTD=
EXTT0=
EXTT1=
EXTT2=
EXTT3=
EXTT4=
EXTT5=
EXTT6=
EXTT7=
EXTT8=
EXTT9=
EXTT10=
PLAYORDER=
